<?xml version="1.0" encoding="UTF-8"?>
<svg xmlns="http://www.w3.org/2000/svg" xmlns:xlink="http://www.w3.org/1999/xlink" width="489.74pt" height="132.25pt" viewBox="0 0 489.74 132.25" version="1.1">
<defs>
<clipPath id="clip1">
  <path d="M 197 0 L 271 0 L 271 132.25 L 197 132.25 Z M 197 0 "/>
</clipPath>
<clipPath id="clip2">
  <path d="M 477 51 L 489.738281 51 L 489.738281 64 L 477 64 Z M 477 51 "/>
</clipPath>
</defs>
<g id="surface1">
<path style=" stroke:none;fill-rule:evenodd;fill:rgb(16.899109%,17.999268%,19.198608%);fill-opacity:1;" d="M 73.691406 70.28125 C 73.691406 68.851563 72.9375 67.539063 71.703125 66.828125 L 38.828125 47.910156 C 38.273438 47.582031 37.648438 47.414063 37.019531 47.386719 C 36.960938 47.386719 36.726563 47.386719 36.679688 47.386719 C 36.050781 47.414063 35.425781 47.582031 34.863281 47.910156 L 1.988281 66.828125 C 0.761719 67.539063 0 68.851563 0 70.28125 L 0.0703125 121.226563 C 0.0703125 121.933594 0.441406 122.59375 1.0625 122.941406 C 1.675781 123.308594 2.429688 123.308594 3.035156 122.941406 L 22.574219 111.753906 C 23.808594 111.019531 24.5625 109.722656 24.5625 108.308594 L 24.5625 84.507813 C 24.5625 83.085938 25.3125 81.773438 26.542969 81.070313 L 34.863281 76.277344 C 35.484375 75.917969 36.160156 75.742188 36.855469 75.742188 C 37.53125 75.742188 38.226563 75.917969 38.828125 76.277344 L 47.144531 81.070313 C 48.375 81.773438 49.132813 83.085938 49.132813 84.507813 L 49.132813 108.308594 C 49.132813 109.722656 49.894531 111.027344 51.121094 111.753906 L 70.65625 122.941406 C 71.265625 123.308594 72.03125 123.308594 72.640625 122.941406 C 73.246094 122.59375 73.625 121.933594 73.625 121.226563 L 73.691406 70.28125 "/>
<g clip-path="url(#clip1)" clip-rule="nonzero">
<path style=" stroke:none;fill-rule:evenodd;fill:rgb(16.899109%,17.999268%,19.198608%);fill-opacity:1;" d="M 246.1875 96.808594 C 246.1875 97.160156 245.996094 97.488281 245.691406 97.667969 L 234.398438 104.175781 C 234.09375 104.351563 233.714844 104.351563 233.40625 104.175781 L 222.113281 97.667969 C 221.808594 97.488281 221.617188 97.160156 221.617188 96.808594 L 221.617188 83.769531 C 221.617188 83.414063 221.808594 83.085938 222.113281 82.90625 L 233.40625 76.386719 C 233.714844 76.207031 234.09375 76.207031 234.398438 76.386719 L 245.691406 82.90625 C 245.996094 83.085938 246.1875 83.414063 246.1875 83.769531 Z M 249.238281 0.246094 C 248.625 -0.0976563 247.871094 -0.0898438 247.265625 0.269531 C 246.660156 0.625 246.285156 1.277344 246.285156 1.980469 L 246.285156 52.433594 C 246.285156 52.929688 246.019531 53.390625 245.59375 53.636719 C 245.160156 53.886719 244.632813 53.886719 244.199219 53.636719 L 235.96875 48.894531 C 234.738281 48.183594 233.226563 48.1875 232 48.894531 L 199.109375 67.875 C 197.882813 68.585938 197.125 69.894531 197.125 71.3125 L 197.125 109.28125 C 197.125 110.703125 197.882813 112.011719 199.109375 112.722656 L 231.996094 131.71875 C 233.226563 132.425781 234.738281 132.425781 235.96875 131.71875 L 268.863281 112.722656 C 270.089844 112.011719 270.847656 110.703125 270.847656 109.28125 L 270.847656 14.636719 C 270.847656 13.195313 270.070313 11.867188 268.8125 11.167969 L 249.238281 0.246094 "/>
</g>
<path style=" stroke:none;fill-rule:evenodd;fill:rgb(16.899109%,17.999268%,19.198608%);fill-opacity:1;" d="M 366.902344 83.425781 C 368.128906 82.71875 368.878906 81.410156 368.878906 79.992188 L 368.878906 70.792969 C 368.878906 69.378906 368.128906 68.070313 366.902344 67.355469 L 334.226563 48.386719 C 332.996094 47.671875 331.476563 47.667969 330.246094 48.378906 L 297.367188 67.359375 C 296.140625 68.070313 295.382813 69.378906 295.382813 70.796875 L 295.382813 108.757813 C 295.382813 110.183594 296.148438 111.503906 297.390625 112.207031 L 330.0625 130.824219 C 331.265625 131.511719 332.742188 131.519531 333.957031 130.847656 L 353.71875 119.863281 C 354.34375 119.515625 354.734375 118.855469 354.738281 118.140625 C 354.742188 117.421875 354.363281 116.761719 353.742188 116.40625 L 320.65625 97.414063 C 320.039063 97.0625 319.660156 96.402344 319.660156 95.691406 L 319.660156 83.796875 C 319.660156 83.085938 320.035156 82.429688 320.652344 82.078125 L 330.949219 76.140625 C 331.5625 75.785156 332.320313 75.785156 332.933594 76.140625 L 343.234375 82.078125 C 343.851563 82.429688 344.226563 83.085938 344.226563 83.796875 L 344.226563 93.15625 C 344.226563 93.867188 344.609375 94.523438 345.222656 94.878906 C 345.839844 95.234375 346.597656 95.230469 347.210938 94.875 L 366.902344 83.425781 "/>
<path style=" stroke:none;fill-rule:evenodd;fill:rgb(47.799683%,75.698853%,25.898743%);fill-opacity:1;" d="M 133.492188 48.179688 C 134.722656 47.46875 136.234375 47.46875 137.464844 48.179688 L 170.347656 67.15625 C 171.578125 67.867188 172.335938 69.175781 172.335938 70.597656 L 172.335938 108.582031 C 172.335938 109.996094 171.578125 111.308594 170.351563 112.019531 L 137.464844 131.011719 C 136.234375 131.722656 134.722656 131.722656 133.492188 131.011719 L 100.613281 112.019531 C 99.386719 111.308594 98.628906 109.996094 98.628906 108.582031 L 98.628906 70.59375 C 98.628906 69.175781 99.386719 67.867188 100.617188 67.15625 L 133.492188 48.179688 "/>
<path style=" stroke:none;fill-rule:nonzero;fill:rgb(47.799683%,75.698853%,25.898743%);fill-opacity:1;" d="M 430.753906 131.554688 C 429.621094 131.554688 428.492188 131.257813 427.503906 130.683594 L 417.148438 124.558594 C 415.601563 123.691406 416.359375 123.386719 416.867188 123.207031 C 418.929688 122.492188 419.347656 122.328125 421.550781 121.082031 C 421.777344 120.953125 422.082031 121 422.320313 121.140625 L 430.273438 125.859375 C 430.5625 126.019531 430.96875 126.019531 431.234375 125.859375 L 462.242188 107.964844 C 462.53125 107.796875 462.714844 107.464844 462.714844 107.125 L 462.714844 71.339844 C 462.714844 70.988281 462.53125 70.660156 462.234375 70.484375 L 431.238281 52.601563 C 430.953125 52.433594 430.570313 52.433594 430.28125 52.601563 L 399.292969 70.488281 C 398.992188 70.660156 398.804688 71 398.804688 71.339844 L 398.804688 107.125 C 398.804688 107.464844 398.992188 107.789063 399.292969 107.953125 L 407.785156 112.859375 C 412.394531 115.164063 415.21875 112.453125 415.21875 109.722656 L 415.21875 74.390625 C 415.21875 73.894531 415.617188 73.5 416.117188 73.5 L 420.050781 73.5 C 420.542969 73.5 420.949219 73.894531 420.949219 74.390625 L 420.949219 109.722656 C 420.949219 115.875 417.597656 119.402344 411.765625 119.402344 C 409.976563 119.402344 408.5625 119.402344 404.625 117.460938 L 396.492188 112.78125 C 394.484375 111.617188 393.242188 109.449219 393.242188 107.125 L 393.242188 71.339844 C 393.242188 69.011719 394.484375 66.84375 396.492188 65.6875 L 427.503906 47.769531 C 429.464844 46.65625 432.070313 46.65625 434.019531 47.769531 L 465.027344 65.6875 C 467.035156 66.847656 468.28125 69.011719 468.28125 71.339844 L 468.28125 107.125 C 468.28125 109.449219 467.035156 111.613281 465.027344 112.78125 L 434.019531 130.683594 C 433.027344 131.257813 431.902344 131.554688 430.753906 131.554688 "/>
<path style=" stroke:none;fill-rule:nonzero;fill:rgb(47.799683%,75.698853%,25.898743%);fill-opacity:1;" d="M 440.332031 106.898438 C 426.761719 106.898438 423.921875 100.671875 423.921875 95.445313 C 423.921875 94.949219 424.320313 94.554688 424.816406 94.554688 L 428.824219 94.554688 C 429.273438 94.554688 429.648438 94.875 429.714844 95.3125 C 430.320313 99.394531 432.125 101.453125 440.332031 101.453125 C 446.863281 101.453125 449.644531 99.976563 449.644531 96.511719 C 449.644531 94.511719 448.859375 93.027344 438.703125 92.035156 C 430.222656 91.195313 424.972656 89.320313 424.972656 82.535156 C 424.972656 76.277344 430.246094 72.546875 439.089844 72.546875 C 449.023438 72.546875 453.9375 75.992188 454.5625 83.390625 C 454.585938 83.644531 454.492188 83.890625 454.324219 84.082031 C 454.152344 84.257813 453.917969 84.367188 453.667969 84.367188 L 449.644531 84.367188 C 449.226563 84.367188 448.859375 84.070313 448.773438 83.667969 C 447.808594 79.371094 445.460938 78 439.089844 78 C 431.957031 78 431.128906 80.484375 431.128906 82.34375 C 431.128906 84.601563 432.105469 85.257813 441.734375 86.53125 C 451.265625 87.792969 455.792969 89.578125 455.792969 96.273438 C 455.792969 103.03125 450.15625 106.898438 440.332031 106.898438 "/>
<path style=" stroke:none;fill-rule:evenodd;fill:rgb(47.799683%,75.698853%,25.898743%);fill-opacity:1;" d="M 331.75 81.648438 C 331.984375 81.511719 332.277344 81.511719 332.511719 81.648438 L 338.824219 85.289063 C 339.058594 85.425781 339.203125 85.675781 339.203125 85.949219 L 339.203125 93.238281 C 339.203125 93.511719 339.058594 93.761719 338.824219 93.898438 L 332.511719 97.539063 C 332.277344 97.675781 331.984375 97.675781 331.75 97.539063 L 325.445313 93.898438 C 325.210938 93.761719 325.0625 93.511719 325.0625 93.238281 L 325.0625 85.949219 C 325.0625 85.675781 325.210938 85.425781 325.445313 85.289063 L 331.75 81.648438 "/>
<g clip-path="url(#clip2)" clip-rule="nonzero">
<path style=" stroke:none;fill-rule:nonzero;fill:rgb(47.799683%,75.698853%,25.898743%);fill-opacity:1;" d="M 482.789063 57.050781 L 483.832031 57.050781 C 484.683594 57.050781 484.84375 56.453125 484.84375 56.105469 C 484.84375 55.1875 484.210938 55.1875 483.863281 55.1875 L 482.789063 55.1875 Z M 481.523438 54.109375 L 483.832031 54.109375 C 484.621094 54.109375 486.171875 54.109375 486.171875 55.882813 C 486.171875 57.117188 485.382813 57.367188 484.90625 57.527344 C 485.824219 57.589844 485.886719 58.191406 486.011719 59.042969 C 486.078125 59.582031 486.171875 60.5 486.359375 60.816406 L 484.9375 60.816406 C 484.90625 60.5 484.683594 58.789063 484.683594 58.695313 C 484.59375 58.316406 484.464844 58.128906 483.988281 58.128906 L 482.820313 58.128906 L 482.820313 60.816406 L 481.523438 60.816406 Z M 478.757813 57.445313 C 478.757813 60.230469 481.003906 62.476563 483.753906 62.476563 C 486.535156 62.476563 488.78125 60.183594 488.78125 57.445313 C 488.78125 54.664063 486.503906 52.453125 483.753906 52.453125 C 481.03125 52.453125 478.757813 54.632813 478.757813 57.445313 Z M 489.742188 57.464844 C 489.742188 60.75 487.054688 63.441406 483.769531 63.441406 C 480.511719 63.441406 477.792969 60.785156 477.792969 57.464844 C 477.792969 54.082031 480.574219 51.484375 483.769531 51.484375 C 486.992188 51.484375 489.742188 54.082031 489.742188 57.464844 "/>
</g>
</g>
</svg>
